<mxfile host="app.diagrams.net" modified="2021-03-22T20:40:57.709Z" agent="5.0 (X11)" etag="-dy3Y6Ulbl-u0NJ1SOgk" version="14.5.0" type="github">
  <diagram id="4k6kJ0686AJwTIFpVhbg" name="Page-1">
    <mxGraphModel dx="2849" dy="1086" grid="1" gridSize="10" guides="1" tooltips="1" connect="1" arrows="1" fold="1" page="1" pageScale="1" pageWidth="850" pageHeight="1100" math="0" shadow="0">
      <root>
        <mxCell id="0" />
        <mxCell id="1" parent="0" />
        <mxCell id="VuN07nRi7ItUdz3JEj3p-11" style="edgeStyle=orthogonalEdgeStyle;rounded=0;orthogonalLoop=1;jettySize=auto;html=1;exitX=0.5;exitY=1;exitDx=0;exitDy=0;entryX=0.5;entryY=0;entryDx=0;entryDy=0;" edge="1" parent="1" source="VuN07nRi7ItUdz3JEj3p-1" target="VuN07nRi7ItUdz3JEj3p-57">
          <mxGeometry relative="1" as="geometry">
            <mxPoint x="-325" y="260" as="targetPoint" />
          </mxGeometry>
        </mxCell>
        <mxCell id="VuN07nRi7ItUdz3JEj3p-12" style="edgeStyle=orthogonalEdgeStyle;rounded=0;orthogonalLoop=1;jettySize=auto;html=1;exitX=0.5;exitY=1;exitDx=0;exitDy=0;" edge="1" parent="1" source="VuN07nRi7ItUdz3JEj3p-1" target="VuN07nRi7ItUdz3JEj3p-4">
          <mxGeometry relative="1" as="geometry" />
        </mxCell>
        <mxCell id="VuN07nRi7ItUdz3JEj3p-41" style="edgeStyle=orthogonalEdgeStyle;rounded=0;orthogonalLoop=1;jettySize=auto;html=1;exitX=0;exitY=0.5;exitDx=0;exitDy=0;entryX=1;entryY=0.5;entryDx=0;entryDy=0;" edge="1" parent="1" source="VuN07nRi7ItUdz3JEj3p-1" target="VuN07nRi7ItUdz3JEj3p-6">
          <mxGeometry relative="1" as="geometry" />
        </mxCell>
        <mxCell id="VuN07nRi7ItUdz3JEj3p-50" style="edgeStyle=orthogonalEdgeStyle;rounded=0;orthogonalLoop=1;jettySize=auto;html=1;exitX=0.5;exitY=1;exitDx=0;exitDy=0;entryX=0.5;entryY=0;entryDx=0;entryDy=0;" edge="1" parent="1" source="VuN07nRi7ItUdz3JEj3p-1" target="VuN07nRi7ItUdz3JEj3p-5">
          <mxGeometry relative="1" as="geometry" />
        </mxCell>
        <mxCell id="VuN07nRi7ItUdz3JEj3p-55" style="edgeStyle=orthogonalEdgeStyle;rounded=0;orthogonalLoop=1;jettySize=auto;html=1;exitX=0.5;exitY=1;exitDx=0;exitDy=0;entryX=0.5;entryY=0;entryDx=0;entryDy=0;" edge="1" parent="1" source="VuN07nRi7ItUdz3JEj3p-1" target="VuN07nRi7ItUdz3JEj3p-2">
          <mxGeometry relative="1" as="geometry" />
        </mxCell>
        <mxCell id="VuN07nRi7ItUdz3JEj3p-1" value="Data Loader" style="rounded=1;whiteSpace=wrap;html=1;" vertex="1" parent="1">
          <mxGeometry x="-475" y="160" width="120" height="40" as="geometry" />
        </mxCell>
        <mxCell id="VuN07nRi7ItUdz3JEj3p-46" style="edgeStyle=orthogonalEdgeStyle;rounded=0;orthogonalLoop=1;jettySize=auto;html=1;exitX=1;exitY=0.5;exitDx=0;exitDy=0;entryX=0;entryY=0.5;entryDx=0;entryDy=0;" edge="1" parent="1" source="VuN07nRi7ItUdz3JEj3p-2" target="VuN07nRi7ItUdz3JEj3p-42">
          <mxGeometry relative="1" as="geometry">
            <Array as="points">
              <mxPoint x="-600" y="280" />
              <mxPoint x="-600" y="360" />
            </Array>
          </mxGeometry>
        </mxCell>
        <mxCell id="VuN07nRi7ItUdz3JEj3p-60" style="edgeStyle=orthogonalEdgeStyle;rounded=0;orthogonalLoop=1;jettySize=auto;html=1;exitX=0.5;exitY=1;exitDx=0;exitDy=0;" edge="1" parent="1" source="VuN07nRi7ItUdz3JEj3p-2" target="VuN07nRi7ItUdz3JEj3p-22">
          <mxGeometry relative="1" as="geometry" />
        </mxCell>
        <mxCell id="VuN07nRi7ItUdz3JEj3p-2" value="&lt;div&gt;Light Curve 1&lt;br&gt;&lt;/div&gt;&lt;div&gt;&lt;font color=&quot;#0000FF&quot;&gt;(&lt;/font&gt;&lt;font color=&quot;#0000FF&quot;&gt;&lt;font color=&quot;#0000FF&quot;&gt;L&lt;sub&gt;1&lt;/sub&gt;&lt;/font&gt;, 4)&lt;/font&gt;&lt;br&gt;&lt;/div&gt;" style="rounded=0;whiteSpace=wrap;html=1;" vertex="1" parent="1">
          <mxGeometry x="-735" y="260" width="90" height="40" as="geometry" />
        </mxCell>
        <mxCell id="VuN07nRi7ItUdz3JEj3p-47" style="edgeStyle=orthogonalEdgeStyle;rounded=0;orthogonalLoop=1;jettySize=auto;html=1;exitX=0;exitY=0.5;exitDx=0;exitDy=0;entryX=1;entryY=0.5;entryDx=0;entryDy=0;" edge="1" parent="1" source="VuN07nRi7ItUdz3JEj3p-57" target="VuN07nRi7ItUdz3JEj3p-42">
          <mxGeometry relative="1" as="geometry">
            <mxPoint x="-370" y="280" as="sourcePoint" />
            <Array as="points">
              <mxPoint x="-400" y="280" />
              <mxPoint x="-400" y="360" />
            </Array>
          </mxGeometry>
        </mxCell>
        <mxCell id="VuN07nRi7ItUdz3JEj3p-61" style="edgeStyle=orthogonalEdgeStyle;rounded=0;orthogonalLoop=1;jettySize=auto;html=1;exitX=0.5;exitY=1;exitDx=0;exitDy=0;entryX=1;entryY=0.5;entryDx=0;entryDy=0;" edge="1" parent="1" source="VuN07nRi7ItUdz3JEj3p-4" target="VuN07nRi7ItUdz3JEj3p-18">
          <mxGeometry relative="1" as="geometry" />
        </mxCell>
        <mxCell id="VuN07nRi7ItUdz3JEj3p-4" value="&lt;div&gt;Light Curve 2 &lt;b&gt;Length&lt;/b&gt;&lt;/div&gt;&lt;div&gt;&lt;font color=&quot;#0000FF&quot;&gt;( )&lt;/font&gt;&lt;br&gt;&lt;/div&gt;" style="rounded=0;whiteSpace=wrap;html=1;" vertex="1" parent="1">
          <mxGeometry x="-200" y="260" width="120" height="40" as="geometry" />
        </mxCell>
        <mxCell id="VuN07nRi7ItUdz3JEj3p-51" style="edgeStyle=orthogonalEdgeStyle;rounded=0;orthogonalLoop=1;jettySize=auto;html=1;exitX=0.5;exitY=1;exitDx=0;exitDy=0;entryX=0.5;entryY=0;entryDx=0;entryDy=0;" edge="1" parent="1" source="VuN07nRi7ItUdz3JEj3p-5" target="VuN07nRi7ItUdz3JEj3p-42">
          <mxGeometry relative="1" as="geometry" />
        </mxCell>
        <mxCell id="VuN07nRi7ItUdz3JEj3p-6" value="&lt;div&gt;Light Curve STD&lt;/div&gt;&lt;div&gt;&lt;font color=&quot;#0000FF&quot;&gt;(&lt;/font&gt;&lt;font color=&quot;#0000FF&quot;&gt;&lt;font color=&quot;#0000FF&quot;&gt;L&lt;sub&gt;1&lt;/sub&gt;&lt;/font&gt;+&lt;/font&gt;&lt;font color=&quot;#0000FF&quot;&gt;&lt;font color=&quot;#0000FF&quot;&gt;L&lt;sub&gt;2&lt;/sub&gt;&lt;/font&gt;, 4)&lt;/font&gt;&lt;br&gt;&lt;/div&gt;" style="rounded=0;whiteSpace=wrap;html=1;" vertex="1" parent="1">
          <mxGeometry x="-720" y="160" width="170" height="40" as="geometry" />
        </mxCell>
        <mxCell id="VuN07nRi7ItUdz3JEj3p-62" style="edgeStyle=orthogonalEdgeStyle;rounded=0;orthogonalLoop=1;jettySize=auto;html=1;exitX=0.5;exitY=1;exitDx=0;exitDy=0;entryX=0.5;entryY=0;entryDx=0;entryDy=0;" edge="1" parent="1" source="VuN07nRi7ItUdz3JEj3p-18" target="VuN07nRi7ItUdz3JEj3p-35">
          <mxGeometry relative="1" as="geometry" />
        </mxCell>
        <mxCell id="VuN07nRi7ItUdz3JEj3p-64" style="edgeStyle=orthogonalEdgeStyle;rounded=0;orthogonalLoop=1;jettySize=auto;html=1;exitX=0.5;exitY=1;exitDx=0;exitDy=0;entryX=0.5;entryY=0;entryDx=0;entryDy=0;" edge="1" parent="1" source="VuN07nRi7ItUdz3JEj3p-18" target="VuN07nRi7ItUdz3JEj3p-34">
          <mxGeometry relative="1" as="geometry" />
        </mxCell>
        <mxCell id="VuN07nRi7ItUdz3JEj3p-18" value="Create Mask" style="rounded=1;whiteSpace=wrap;html=1;" vertex="1" parent="1">
          <mxGeometry x="-345" y="425" width="120" height="30" as="geometry" />
        </mxCell>
        <mxCell id="VuN07nRi7ItUdz3JEj3p-28" style="edgeStyle=orthogonalEdgeStyle;rounded=0;orthogonalLoop=1;jettySize=auto;html=1;exitX=0.5;exitY=1;exitDx=0;exitDy=0;entryX=0.5;entryY=0;entryDx=0;entryDy=0;" edge="1" parent="1" source="VuN07nRi7ItUdz3JEj3p-22" target="VuN07nRi7ItUdz3JEj3p-26">
          <mxGeometry relative="1" as="geometry" />
        </mxCell>
        <mxCell id="VuN07nRi7ItUdz3JEj3p-29" style="edgeStyle=orthogonalEdgeStyle;rounded=0;orthogonalLoop=1;jettySize=auto;html=1;exitX=0.5;exitY=1;exitDx=0;exitDy=0;entryX=0.5;entryY=0;entryDx=0;entryDy=0;" edge="1" parent="1" source="VuN07nRi7ItUdz3JEj3p-22" target="VuN07nRi7ItUdz3JEj3p-27">
          <mxGeometry relative="1" as="geometry" />
        </mxCell>
        <mxCell id="VuN07nRi7ItUdz3JEj3p-22" value="Create Mask" style="rounded=1;whiteSpace=wrap;html=1;" vertex="1" parent="1">
          <mxGeometry x="-750" y="425" width="120" height="30" as="geometry" />
        </mxCell>
        <mxCell id="VuN07nRi7ItUdz3JEj3p-75" style="edgeStyle=orthogonalEdgeStyle;rounded=0;orthogonalLoop=1;jettySize=auto;html=1;exitX=0.5;exitY=1;exitDx=0;exitDy=0;entryX=0;entryY=0.5;entryDx=0;entryDy=0;" edge="1" parent="1" source="VuN07nRi7ItUdz3JEj3p-26" target="VuN07nRi7ItUdz3JEj3p-74">
          <mxGeometry relative="1" as="geometry" />
        </mxCell>
        <mxCell id="VuN07nRi7ItUdz3JEj3p-26" value="&lt;div&gt;Mask 1 &lt;b&gt;Target&lt;/b&gt;&lt;br&gt;&lt;/div&gt;&lt;div&gt;&lt;font color=&quot;#0000FF&quot;&gt;(L&lt;sub&gt;1&lt;/sub&gt;)&lt;/font&gt;&lt;/div&gt;&lt;div&gt;&lt;br&gt;&lt;/div&gt;&lt;div&gt;&lt;font face=&quot;Courier New&quot;&gt;[MASKED]&lt;/font&gt;, &lt;font face=&quot;Courier New&quot;&gt;[SEP]&lt;/font&gt; and &lt;font face=&quot;Courier New&quot;&gt;[CLS]&lt;/font&gt; = 1&lt;br&gt;&lt;/div&gt;" style="rounded=0;whiteSpace=wrap;html=1;" vertex="1" parent="1">
          <mxGeometry x="-760" y="540" width="140" height="80" as="geometry" />
        </mxCell>
        <mxCell id="VuN07nRi7ItUdz3JEj3p-66" style="edgeStyle=orthogonalEdgeStyle;rounded=0;orthogonalLoop=1;jettySize=auto;html=1;exitX=0.5;exitY=1;exitDx=0;exitDy=0;entryX=0;entryY=0.5;entryDx=0;entryDy=0;" edge="1" parent="1" source="VuN07nRi7ItUdz3JEj3p-27" target="VuN07nRi7ItUdz3JEj3p-65">
          <mxGeometry relative="1" as="geometry" />
        </mxCell>
        <mxCell id="VuN07nRi7ItUdz3JEj3p-27" value="&lt;div&gt;Mask 1 &lt;b&gt;Input&lt;/b&gt;&lt;br&gt;&lt;/div&gt;&lt;div&gt;&lt;font color=&quot;#0000FF&quot;&gt;(&lt;/font&gt;&lt;font color=&quot;#0000FF&quot;&gt;&lt;font color=&quot;#0000FF&quot;&gt;L&lt;sub&gt;1&lt;/sub&gt;&lt;/font&gt;)&lt;/font&gt;&lt;br&gt;&lt;/div&gt;&lt;div&gt;&lt;br&gt;&lt;/div&gt;&lt;div&gt;10% random and same = 0&lt;br&gt;&lt;/div&gt;" style="rounded=0;whiteSpace=wrap;html=1;" vertex="1" parent="1">
          <mxGeometry x="-610" y="540" width="110" height="80" as="geometry" />
        </mxCell>
        <mxCell id="VuN07nRi7ItUdz3JEj3p-76" style="edgeStyle=orthogonalEdgeStyle;rounded=0;orthogonalLoop=1;jettySize=auto;html=1;exitX=0.5;exitY=1;exitDx=0;exitDy=0;entryX=1;entryY=0.5;entryDx=0;entryDy=0;" edge="1" parent="1" source="VuN07nRi7ItUdz3JEj3p-34" target="VuN07nRi7ItUdz3JEj3p-74">
          <mxGeometry relative="1" as="geometry" />
        </mxCell>
        <mxCell id="VuN07nRi7ItUdz3JEj3p-34" value="&lt;div&gt;Mask 2 &lt;b&gt;Target&lt;/b&gt;&lt;br&gt;&lt;/div&gt;&lt;div&gt;&lt;font color=&quot;#0000FF&quot;&gt;(&lt;/font&gt;&lt;font color=&quot;#0000FF&quot;&gt;&lt;font color=&quot;#0000FF&quot;&gt;L&lt;sub&gt;2&lt;/sub&gt;&lt;/font&gt;)&lt;/font&gt;&lt;/div&gt;&lt;div&gt;&lt;br&gt;&lt;/div&gt;&lt;div&gt;&lt;font face=&quot;Courier New&quot;&gt;[MASKED]&lt;/font&gt;, &lt;font face=&quot;Courier New&quot;&gt;[SEP]&lt;/font&gt;, &lt;font face=&quot;Courier New&quot;&gt;[CLS]&lt;/font&gt; and Padding = 1 &lt;br&gt;&lt;/div&gt;" style="rounded=0;whiteSpace=wrap;html=1;" vertex="1" parent="1">
          <mxGeometry x="-220" y="540" width="140" height="80" as="geometry" />
        </mxCell>
        <mxCell id="VuN07nRi7ItUdz3JEj3p-67" style="edgeStyle=orthogonalEdgeStyle;rounded=0;orthogonalLoop=1;jettySize=auto;html=1;exitX=0.5;exitY=1;exitDx=0;exitDy=0;entryX=1;entryY=0.5;entryDx=0;entryDy=0;" edge="1" parent="1" source="VuN07nRi7ItUdz3JEj3p-35" target="VuN07nRi7ItUdz3JEj3p-65">
          <mxGeometry relative="1" as="geometry" />
        </mxCell>
        <mxCell id="VuN07nRi7ItUdz3JEj3p-35" value="&lt;div&gt;Mask 2 &lt;b&gt;Input&lt;/b&gt;&lt;br&gt;&lt;/div&gt;&lt;div&gt;&lt;font color=&quot;#0000FF&quot;&gt;(&lt;/font&gt;&lt;font color=&quot;#0000FF&quot;&gt;&lt;font color=&quot;#0000FF&quot;&gt;L&lt;sub&gt;2&lt;/sub&gt;&lt;/font&gt;)&lt;/font&gt;&lt;br&gt;&lt;/div&gt;&lt;div&gt;&lt;br&gt;&lt;/div&gt;&lt;div&gt;10% random and same = 0&lt;br&gt;&lt;/div&gt;" style="rounded=0;whiteSpace=wrap;html=1;" vertex="1" parent="1">
          <mxGeometry x="-340" y="540" width="110" height="80" as="geometry" />
        </mxCell>
        <mxCell id="VuN07nRi7ItUdz3JEj3p-52" style="edgeStyle=orthogonalEdgeStyle;rounded=0;orthogonalLoop=1;jettySize=auto;html=1;exitX=0.5;exitY=1;exitDx=0;exitDy=0;entryX=0.5;entryY=0;entryDx=0;entryDy=0;" edge="1" parent="1" source="VuN07nRi7ItUdz3JEj3p-42" target="VuN07nRi7ItUdz3JEj3p-48">
          <mxGeometry relative="1" as="geometry" />
        </mxCell>
        <mxCell id="VuN07nRi7ItUdz3JEj3p-42" value="&lt;font style=&quot;font-size: 20px&quot;&gt;+&lt;/font&gt;" style="ellipse;whiteSpace=wrap;html=1;aspect=fixed;" vertex="1" parent="1">
          <mxGeometry x="-510" y="340" width="40" height="40" as="geometry" />
        </mxCell>
        <mxCell id="VuN07nRi7ItUdz3JEj3p-48" value="&lt;div&gt;Input&lt;br&gt;&lt;/div&gt;&lt;div&gt;&lt;font color=&quot;#0000FF&quot;&gt;(&lt;font face=&quot;Courier New&quot;&gt;[CLS]&lt;/font&gt;+L1+&lt;font face=&quot;Courier New&quot;&gt;[SEP]&lt;/font&gt;+&lt;/font&gt;&lt;font color=&quot;#0000FF&quot;&gt;L2, 4)&lt;/font&gt;&lt;br&gt;&lt;/div&gt;" style="rounded=0;whiteSpace=wrap;html=1;fillColor=#d5e8d4;strokeColor=#82b366;" vertex="1" parent="1">
          <mxGeometry x="-582.5" y="420" width="185" height="40" as="geometry" />
        </mxCell>
        <mxCell id="VuN07nRi7ItUdz3JEj3p-5" value="&lt;div&gt;Random Class [CLS]&lt;/div&gt;&lt;div&gt;&lt;font color=&quot;#0000FF&quot;&gt;( )&lt;/font&gt;&lt;br&gt;&lt;/div&gt;" style="rounded=0;whiteSpace=wrap;html=1;" vertex="1" parent="1">
          <mxGeometry x="-550" y="260" width="120" height="40" as="geometry" />
        </mxCell>
        <mxCell id="VuN07nRi7ItUdz3JEj3p-58" style="edgeStyle=orthogonalEdgeStyle;rounded=0;orthogonalLoop=1;jettySize=auto;html=1;exitX=0.5;exitY=1;exitDx=0;exitDy=0;entryX=0.5;entryY=0;entryDx=0;entryDy=0;" edge="1" parent="1" source="VuN07nRi7ItUdz3JEj3p-57" target="VuN07nRi7ItUdz3JEj3p-18">
          <mxGeometry relative="1" as="geometry" />
        </mxCell>
        <mxCell id="VuN07nRi7ItUdz3JEj3p-57" value="&lt;div&gt;Light Curve 2&lt;br&gt;&lt;/div&gt;&lt;div&gt;&lt;font color=&quot;#0000FF&quot;&gt;(L&lt;sub&gt;2&lt;/sub&gt;, 4)&lt;/font&gt;&lt;br&gt;&lt;/div&gt;" style="rounded=0;whiteSpace=wrap;html=1;" vertex="1" parent="1">
          <mxGeometry x="-330" y="260" width="90" height="40" as="geometry" />
        </mxCell>
        <mxCell id="VuN07nRi7ItUdz3JEj3p-71" style="edgeStyle=orthogonalEdgeStyle;rounded=0;orthogonalLoop=1;jettySize=auto;html=1;exitX=0.5;exitY=1;exitDx=0;exitDy=0;entryX=0.5;entryY=0;entryDx=0;entryDy=0;" edge="1" parent="1" source="VuN07nRi7ItUdz3JEj3p-65" target="VuN07nRi7ItUdz3JEj3p-69">
          <mxGeometry relative="1" as="geometry" />
        </mxCell>
        <mxCell id="VuN07nRi7ItUdz3JEj3p-65" value="&lt;font style=&quot;font-size: 20px&quot;&gt;+&lt;/font&gt;" style="ellipse;whiteSpace=wrap;html=1;aspect=fixed;" vertex="1" parent="1">
          <mxGeometry x="-440" y="620" width="40" height="40" as="geometry" />
        </mxCell>
        <mxCell id="VuN07nRi7ItUdz3JEj3p-69" value="&lt;div&gt;Input Mask&lt;br&gt;&lt;/div&gt;&lt;div&gt;&lt;font color=&quot;#0000FF&quot;&gt;(L1+&lt;/font&gt;&lt;font color=&quot;#0000FF&quot;&gt;L2+2, L&lt;/font&gt;&lt;font color=&quot;#0000FF&quot;&gt;&lt;font color=&quot;#0000FF&quot;&gt;1+&lt;/font&gt;&lt;font color=&quot;#0000FF&quot;&gt;L2+2&lt;/font&gt;)&lt;/font&gt;&lt;br&gt;&lt;/div&gt;" style="rounded=0;whiteSpace=wrap;html=1;fillColor=#fff2cc;strokeColor=#d6b656;" vertex="1" parent="1">
          <mxGeometry x="-541.25" y="690" width="242.5" height="40" as="geometry" />
        </mxCell>
        <mxCell id="VuN07nRi7ItUdz3JEj3p-73" value="&lt;div&gt;Target Mask&lt;br&gt;&lt;/div&gt;&lt;div&gt;&lt;font color=&quot;#0000FF&quot;&gt;&lt;font face=&quot;Courier New&quot;&gt;([CLS]&lt;/font&gt;+&lt;/font&gt;&lt;font color=&quot;#0000FF&quot;&gt;&lt;font color=&quot;#0000FF&quot;&gt;L&lt;sub&gt;1&lt;/sub&gt;&lt;/font&gt;+&lt;font face=&quot;Courier New&quot;&gt;[SEP]&lt;/font&gt;+&lt;/font&gt;&lt;font color=&quot;#0000FF&quot;&gt;L&lt;sub&gt;2&lt;/sub&gt;&lt;/font&gt;&lt;font color=&quot;#0000FF&quot;&gt;)&lt;/font&gt;&lt;/div&gt;" style="rounded=0;whiteSpace=wrap;html=1;fillColor=#e1d5e7;strokeColor=#9673a6;" vertex="1" parent="1">
          <mxGeometry x="-512.5" y="830" width="185" height="40" as="geometry" />
        </mxCell>
        <mxCell id="VuN07nRi7ItUdz3JEj3p-78" style="edgeStyle=orthogonalEdgeStyle;rounded=0;orthogonalLoop=1;jettySize=auto;html=1;exitX=0.5;exitY=1;exitDx=0;exitDy=0;" edge="1" parent="1" source="VuN07nRi7ItUdz3JEj3p-74" target="VuN07nRi7ItUdz3JEj3p-73">
          <mxGeometry relative="1" as="geometry" />
        </mxCell>
        <mxCell id="VuN07nRi7ItUdz3JEj3p-74" value="&lt;font style=&quot;font-size: 20px&quot;&gt;+&lt;/font&gt;" style="ellipse;whiteSpace=wrap;html=1;aspect=fixed;" vertex="1" parent="1">
          <mxGeometry x="-440" y="760" width="40" height="40" as="geometry" />
        </mxCell>
        <mxCell id="VuN07nRi7ItUdz3JEj3p-83" style="edgeStyle=orthogonalEdgeStyle;rounded=0;orthogonalLoop=1;jettySize=auto;html=1;exitX=0;exitY=0.5;exitDx=0;exitDy=0;entryX=1;entryY=0.5;entryDx=0;entryDy=0;" edge="1" parent="1" source="VuN07nRi7ItUdz3JEj3p-86" target="VuN07nRi7ItUdz3JEj3p-94">
          <mxGeometry relative="1" as="geometry" />
        </mxCell>
        <mxCell id="VuN07nRi7ItUdz3JEj3p-84" style="edgeStyle=orthogonalEdgeStyle;rounded=0;orthogonalLoop=1;jettySize=auto;html=1;exitX=0.5;exitY=1;exitDx=0;exitDy=0;entryX=0.5;entryY=0;entryDx=0;entryDy=0;dashed=1;dashPattern=1 4;" edge="1" parent="1" source="VuN07nRi7ItUdz3JEj3p-86" target="VuN07nRi7ItUdz3JEj3p-112">
          <mxGeometry relative="1" as="geometry" />
        </mxCell>
        <mxCell id="VuN07nRi7ItUdz3JEj3p-85" style="edgeStyle=orthogonalEdgeStyle;rounded=0;orthogonalLoop=1;jettySize=auto;html=1;exitX=0.5;exitY=1;exitDx=0;exitDy=0;entryX=0.5;entryY=0;entryDx=0;entryDy=0;" edge="1" parent="1" source="VuN07nRi7ItUdz3JEj3p-86" target="VuN07nRi7ItUdz3JEj3p-89">
          <mxGeometry relative="1" as="geometry" />
        </mxCell>
        <mxCell id="VuN07nRi7ItUdz3JEj3p-122" style="edgeStyle=orthogonalEdgeStyle;rounded=0;orthogonalLoop=1;jettySize=auto;html=1;exitX=0.5;exitY=1;exitDx=0;exitDy=0;entryX=0.5;entryY=0;entryDx=0;entryDy=0;dashed=1;strokeWidth=1;" edge="1" parent="1" source="VuN07nRi7ItUdz3JEj3p-86" target="VuN07nRi7ItUdz3JEj3p-121">
          <mxGeometry relative="1" as="geometry" />
        </mxCell>
        <mxCell id="VuN07nRi7ItUdz3JEj3p-124" style="edgeStyle=orthogonalEdgeStyle;rounded=0;orthogonalLoop=1;jettySize=auto;html=1;exitX=0.5;exitY=1;exitDx=0;exitDy=0;entryX=0.5;entryY=0;entryDx=0;entryDy=0;strokeWidth=1;" edge="1" parent="1" source="VuN07nRi7ItUdz3JEj3p-86" target="VuN07nRi7ItUdz3JEj3p-123">
          <mxGeometry relative="1" as="geometry" />
        </mxCell>
        <mxCell id="VuN07nRi7ItUdz3JEj3p-86" value="Data Loader Prediction" style="rounded=1;whiteSpace=wrap;html=1;" vertex="1" parent="1">
          <mxGeometry x="315" y="160" width="120" height="40" as="geometry" />
        </mxCell>
        <mxCell id="VuN07nRi7ItUdz3JEj3p-88" style="edgeStyle=orthogonalEdgeStyle;rounded=0;orthogonalLoop=1;jettySize=auto;html=1;exitX=0.5;exitY=1;exitDx=0;exitDy=0;" edge="1" parent="1" source="VuN07nRi7ItUdz3JEj3p-89" target="VuN07nRi7ItUdz3JEj3p-100">
          <mxGeometry relative="1" as="geometry" />
        </mxCell>
        <mxCell id="VuN07nRi7ItUdz3JEj3p-89" value="&lt;div&gt;Light Curve&lt;br&gt;&lt;/div&gt;&lt;div&gt;&lt;font color=&quot;#0000FF&quot;&gt;(&lt;/font&gt;&lt;font color=&quot;#0000FF&quot;&gt;&lt;font color=&quot;#0000FF&quot;&gt;L&lt;sub&gt;1&lt;/sub&gt;&lt;/font&gt;, 4)&lt;/font&gt;&lt;br&gt;&lt;/div&gt;" style="rounded=0;whiteSpace=wrap;html=1;" vertex="1" parent="1">
          <mxGeometry x="200" y="260" width="90" height="40" as="geometry" />
        </mxCell>
        <mxCell id="VuN07nRi7ItUdz3JEj3p-94" value="&lt;div&gt;Light Curve STD&lt;/div&gt;&lt;div&gt;&lt;font color=&quot;#0000FF&quot;&gt;(&lt;/font&gt;&lt;font color=&quot;#0000FF&quot;&gt;&lt;font color=&quot;#0000FF&quot;&gt;L&lt;sub&gt;1&lt;/sub&gt;&lt;/font&gt;+&lt;/font&gt;&lt;font color=&quot;#0000FF&quot;&gt;&lt;font color=&quot;#0000FF&quot;&gt;L&lt;sub&gt;2&lt;/sub&gt;&lt;/font&gt;, 4)&lt;/font&gt;&lt;br&gt;&lt;/div&gt;" style="rounded=0;whiteSpace=wrap;html=1;" vertex="1" parent="1">
          <mxGeometry x="70" y="160" width="170" height="40" as="geometry" />
        </mxCell>
        <mxCell id="VuN07nRi7ItUdz3JEj3p-98" style="edgeStyle=orthogonalEdgeStyle;rounded=0;orthogonalLoop=1;jettySize=auto;html=1;exitX=0.5;exitY=1;exitDx=0;exitDy=0;entryX=0.5;entryY=0;entryDx=0;entryDy=0;" edge="1" parent="1" source="VuN07nRi7ItUdz3JEj3p-100" target="VuN07nRi7ItUdz3JEj3p-102">
          <mxGeometry relative="1" as="geometry" />
        </mxCell>
        <mxCell id="VuN07nRi7ItUdz3JEj3p-128" style="edgeStyle=orthogonalEdgeStyle;rounded=0;orthogonalLoop=1;jettySize=auto;html=1;exitX=0.5;exitY=1;exitDx=0;exitDy=0;entryX=0.5;entryY=0;entryDx=0;entryDy=0;strokeWidth=1;" edge="1" parent="1" source="VuN07nRi7ItUdz3JEj3p-100" target="VuN07nRi7ItUdz3JEj3p-104">
          <mxGeometry relative="1" as="geometry" />
        </mxCell>
        <mxCell id="VuN07nRi7ItUdz3JEj3p-100" value="Create Mask" style="rounded=1;whiteSpace=wrap;html=1;" vertex="1" parent="1">
          <mxGeometry x="120" y="380" width="120" height="30" as="geometry" />
        </mxCell>
        <mxCell id="VuN07nRi7ItUdz3JEj3p-102" value="&lt;div&gt;Mask &lt;b&gt;Target&lt;/b&gt;&lt;br&gt;&lt;/div&gt;&lt;div&gt;&lt;font color=&quot;#0000FF&quot;&gt;(&lt;/font&gt;&lt;font color=&quot;#0000FF&quot;&gt;&lt;font color=&quot;#0000FF&quot;&gt;L&lt;sub&gt;1&lt;/sub&gt;&lt;/font&gt;)&lt;/font&gt;&lt;/div&gt;&lt;div&gt;&lt;br&gt;&lt;/div&gt;&lt;div&gt;&lt;font face=&quot;Courier New&quot;&gt;[MASKED]&lt;/font&gt;, &lt;font face=&quot;Courier New&quot;&gt;[SEP]&lt;/font&gt;, &lt;font face=&quot;Courier New&quot;&gt;[CLS]&lt;/font&gt; and Padding = 1&lt;br&gt;&lt;/div&gt;" style="rounded=0;whiteSpace=wrap;html=1;" vertex="1" parent="1">
          <mxGeometry x="30" y="470" width="140" height="80" as="geometry" />
        </mxCell>
        <mxCell id="VuN07nRi7ItUdz3JEj3p-104" value="&lt;div&gt;Mask &lt;b&gt;Input&lt;/b&gt;&lt;br&gt;&lt;/div&gt;&lt;div&gt;&lt;font color=&quot;#0000FF&quot;&gt;(L&lt;sub&gt;1&lt;/sub&gt;)&lt;/font&gt;&lt;/div&gt;&lt;div&gt;[SEP], [CLS] and Padding&amp;nbsp; = 1&lt;br&gt;&lt;/div&gt;" style="rounded=0;whiteSpace=wrap;html=1;" vertex="1" parent="1">
          <mxGeometry x="190" y="470" width="185" height="60" as="geometry" />
        </mxCell>
        <mxCell id="VuN07nRi7ItUdz3JEj3p-110" value="&lt;font style=&quot;font-size: 20px&quot;&gt;+&lt;/font&gt;" style="ellipse;whiteSpace=wrap;html=1;aspect=fixed;" vertex="1" parent="1">
          <mxGeometry x="670" y="400" width="40" height="40" as="geometry" />
        </mxCell>
        <mxCell id="VuN07nRi7ItUdz3JEj3p-111" value="&lt;div&gt;Input&lt;br&gt;&lt;/div&gt;&lt;div&gt;&lt;font color=&quot;#0000FF&quot;&gt;(&lt;font face=&quot;Courier New&quot;&gt;[CLS]&lt;/font&gt;+L1+&lt;font face=&quot;Courier New&quot;&gt;[SEP]&lt;/font&gt;+&lt;/font&gt;&lt;font color=&quot;#0000FF&quot;&gt;L2, 4)&lt;/font&gt;&lt;br&gt;&lt;/div&gt;" style="rounded=0;whiteSpace=wrap;html=1;fillColor=#d5e8d4;strokeColor=#82b366;" vertex="1" parent="1">
          <mxGeometry x="597.5" y="470" width="185" height="40" as="geometry" />
        </mxCell>
        <mxCell id="VuN07nRi7ItUdz3JEj3p-112" value="&lt;div&gt;[CLS] = 0 &lt;br&gt;&lt;/div&gt;&lt;div&gt;&lt;font color=&quot;#0000FF&quot;&gt;( )&lt;/font&gt;&lt;br&gt;&lt;/div&gt;" style="rounded=0;whiteSpace=wrap;html=1;" vertex="1" parent="1">
          <mxGeometry x="440" y="260" width="80" height="40" as="geometry" />
        </mxCell>
        <mxCell id="VuN07nRi7ItUdz3JEj3p-117" value="&lt;div&gt;Input Mask&lt;br&gt;&lt;/div&gt;&lt;div&gt;&lt;font color=&quot;#0000FF&quot;&gt;(L1+&lt;/font&gt;&lt;font color=&quot;#0000FF&quot;&gt;L2+2, L&lt;/font&gt;&lt;font color=&quot;#0000FF&quot;&gt;&lt;font color=&quot;#0000FF&quot;&gt;1+&lt;/font&gt;&lt;font color=&quot;#0000FF&quot;&gt;L2+2&lt;/font&gt;)&lt;/font&gt;&lt;br&gt;&lt;/div&gt;" style="rounded=0;whiteSpace=wrap;html=1;fillColor=#fff2cc;strokeColor=#d6b656;" vertex="1" parent="1">
          <mxGeometry x="560" y="720" width="242.5" height="40" as="geometry" />
        </mxCell>
        <mxCell id="VuN07nRi7ItUdz3JEj3p-118" value="&lt;div&gt;Target Mask&lt;br&gt;&lt;/div&gt;&lt;div&gt;&lt;font color=&quot;#0000FF&quot;&gt;&lt;font face=&quot;Courier New&quot;&gt;([CLS]&lt;/font&gt;+L1+&lt;font face=&quot;Courier New&quot;&gt;[SEP]&lt;/font&gt;+&lt;/font&gt;&lt;font color=&quot;#0000FF&quot;&gt;L2)&lt;/font&gt;&lt;/div&gt;" style="rounded=0;whiteSpace=wrap;html=1;fillColor=#e1d5e7;strokeColor=#9673a6;" vertex="1" parent="1">
          <mxGeometry x="510" y="850" width="185" height="40" as="geometry" />
        </mxCell>
        <mxCell id="VuN07nRi7ItUdz3JEj3p-121" value="&lt;div&gt;Ones Vector&lt;br&gt;&lt;/div&gt;&lt;div&gt;&lt;font color=&quot;#0000FF&quot;&gt;(&lt;/font&gt;&lt;font color=&quot;#0000FF&quot;&gt;&lt;font color=&quot;#0000FF&quot;&gt;L&lt;sub&gt;1&lt;/sub&gt;&lt;/font&gt;, 4)&lt;/font&gt;&lt;br&gt;&lt;/div&gt;" style="rounded=0;whiteSpace=wrap;html=1;" vertex="1" parent="1">
          <mxGeometry x="335" y="260" width="80" height="40" as="geometry" />
        </mxCell>
        <mxCell id="VuN07nRi7ItUdz3JEj3p-125" style="edgeStyle=orthogonalEdgeStyle;rounded=0;orthogonalLoop=1;jettySize=auto;html=1;exitX=0.5;exitY=1;exitDx=0;exitDy=0;entryX=0.5;entryY=0;entryDx=0;entryDy=0;strokeWidth=1;" edge="1" parent="1" source="VuN07nRi7ItUdz3JEj3p-123" target="VuN07nRi7ItUdz3JEj3p-100">
          <mxGeometry relative="1" as="geometry" />
        </mxCell>
        <mxCell id="VuN07nRi7ItUdz3JEj3p-123" value="&lt;div&gt;Light Curve &lt;b&gt;Length&lt;/b&gt;&lt;/div&gt;&lt;div&gt;&lt;font color=&quot;#0000FF&quot;&gt;( )&lt;/font&gt;&lt;br&gt;&lt;/div&gt;" style="rounded=0;whiteSpace=wrap;html=1;" vertex="1" parent="1">
          <mxGeometry x="60" y="260" width="120" height="40" as="geometry" />
        </mxCell>
        <mxCell id="VuN07nRi7ItUdz3JEj3p-127" value="Create Mask" style="rounded=1;whiteSpace=wrap;html=1;" vertex="1" parent="1">
          <mxGeometry x="365" y="380" width="120" height="30" as="geometry" />
        </mxCell>
      </root>
    </mxGraphModel>
  </diagram>
</mxfile>
